<svg xmlns="http://www.w3.org/2000/svg" xmlns:xlink="http://www.w3.org/1999/xlink" width="500" zoomAndPan="magnify" viewBox="0 0 375 374.999991" height="500" preserveAspectRatio="xMidYMid meet" version="1.0"><defs><g/><clipPath id="65b22d4eea"><path d="M 143.414062 162.175781 L 162.914062 162.175781 L 162.914062 196 L 143.414062 196 Z M 143.414062 162.175781 " clip-rule="nonzero"/></clipPath><clipPath id="a1ce822e80"><path d="M 149 191 L 152 191 L 152 201.925781 L 149 201.925781 Z M 149 191 " clip-rule="nonzero"/></clipPath><clipPath id="cd20391249"><path d="M 155 191 L 157 191 L 157 201.925781 L 155 201.925781 Z M 155 191 " clip-rule="nonzero"/></clipPath></defs><g clip-path="url(#65b22d4eea)"><path fill="#e80a0a" d="M 152.246094 162.632812 C 151.742188 162.90625 151.511719 163.453125 151.230469 163.917969 C 147.964844 169.503906 146.164062 175.933594 146.054688 182.40625 C 144.46875 183.472656 143.453125 185.335938 143.445312 187.253906 C 143.445312 189.671875 143.417969 192.09375 143.433594 194.511719 C 143.457031 195.253906 144.523438 195.609375 144.984375 195.023438 C 146.066406 193.585938 147.101562 192.113281 148.171875 190.667969 C 148.9375 189.679688 150.171875 189.070312 151.425781 189.074219 C 152.519531 189.066406 153.613281 189.070312 154.703125 189.0625 C 155.929688 189.070312 157.140625 189.65625 157.890625 190.628906 C 158.960938 192.074219 159.992188 193.550781 161.074219 194.992188 C 161.5625 195.589844 162.65625 195.175781 162.621094 194.402344 C 162.636719 192.019531 162.632812 189.636719 162.644531 187.25 C 162.652344 185.335938 161.660156 183.460938 160.078125 182.378906 C 159.964844 175.636719 158.074219 168.914062 154.546875 163.15625 C 154.074219 162.410156 152.996094 162.175781 152.246094 162.632812 Z M 152.246094 162.632812 " fill-opacity="1" fill-rule="nonzero"/></g><path fill="#e80a0a" d="M 153.949219 192.921875 C 153.984375 192.519531 153.738281 192.117188 153.355469 191.984375 C 152.898438 191.804688 152.335938 192.074219 152.1875 192.542969 C 152.082031 194.015625 152.164062 195.507812 152.128906 196.988281 C 152.160156 197.496094 151.988281 198.121094 152.4375 198.496094 C 152.953125 198.992188 153.921875 198.59375 153.925781 197.878906 C 153.945312 196.226562 153.9375 194.574219 153.949219 192.921875 Z M 153.949219 192.921875 " fill-opacity="1" fill-rule="nonzero"/><g clip-path="url(#a1ce822e80)"><path fill="#e80a0a" d="M 149.230469 192.613281 C 149.167969 195.324219 149.210938 198.042969 149.183594 200.761719 C 149.148438 201.167969 149.351562 201.605469 149.753906 201.75 C 150.292969 201.996094 150.984375 201.550781 150.980469 200.957031 C 151 198.277344 150.996094 195.59375 151.007812 192.914062 C 151.039062 192.511719 150.800781 192.105469 150.414062 191.972656 C 149.933594 191.785156 149.335938 192.105469 149.230469 192.613281 Z M 149.230469 192.613281 " fill-opacity="1" fill-rule="nonzero"/></g><g clip-path="url(#cd20391249)"><path fill="#e80a0a" d="M 155.148438 192.613281 C 155.085938 195.324219 155.128906 198.042969 155.101562 200.761719 C 155.066406 201.167969 155.269531 201.605469 155.671875 201.75 C 156.210938 201.996094 156.902344 201.550781 156.898438 200.957031 C 156.917969 198.277344 156.914062 195.59375 156.925781 192.914062 C 156.957031 192.511719 156.71875 192.105469 156.332031 191.972656 C 155.847656 191.785156 155.253906 192.105469 155.148438 192.613281 Z M 155.148438 192.613281 " fill-opacity="1" fill-rule="nonzero"/></g><g fill="#ffffff" fill-opacity="1"><g transform="translate(88.45502, 202.074942)"><g><path d="M 3.90625 -0.171875 C 4.34375 -0.00390625 4.757812 -0.00390625 5.15625 -0.171875 C 5.539062 -0.390625 5.816406 -0.71875 5.984375 -1.15625 L 12.21875 -19.609375 C 12.382812 -20.054688 12.351562 -20.53125 12.125 -21.03125 C 11.957031 -21.46875 11.679688 -21.769531 11.296875 -21.9375 C 10.859375 -22.101562 10.441406 -22.078125 10.046875 -21.859375 C 9.660156 -21.691406 9.382812 -21.359375 9.21875 -20.859375 L 2.984375 -2.5 C 2.816406 -2 2.847656 -1.523438 3.078125 -1.078125 C 3.242188 -0.640625 3.519531 -0.335938 3.90625 -0.171875 Z M 20.765625 -1.15625 C 20.929688 -0.71875 21.210938 -0.390625 21.609375 -0.171875 C 21.992188 -0.00390625 22.40625 -0.00390625 22.84375 -0.171875 C 23.238281 -0.335938 23.519531 -0.640625 23.6875 -1.078125 C 23.851562 -1.523438 23.878906 -2 23.765625 -2.5 L 15.03125 -27.59375 C 14.863281 -28.09375 14.585938 -28.453125 14.203125 -28.671875 C 13.816406 -28.835938 13.398438 -28.835938 12.953125 -28.671875 C 12.566406 -28.503906 12.265625 -28.195312 12.046875 -27.75 C 11.878906 -27.25 11.878906 -26.78125 12.046875 -26.34375 Z M 20.765625 -1.15625 "/></g></g></g><g fill="#ffffff" fill-opacity="1"><g transform="translate(114.381489, 202.074942)"><g><path d="M 16.703125 0 C 19.523438 0 22.125 -0.832031 24.5 -2.5 C 25.0625 -2.882812 25.34375 -3.410156 25.34375 -4.078125 C 25.34375 -4.566406 25.175781 -5.007812 24.84375 -5.40625 C 24.457031 -5.789062 24.015625 -5.984375 23.515625 -5.984375 C 23.015625 -5.984375 22.570312 -5.789062 22.1875 -5.40625 C 20.519531 -4.289062 18.691406 -3.734375 16.703125 -3.734375 C 15.316406 -3.734375 14.015625 -3.984375 12.796875 -4.484375 C 11.578125 -5.035156 10.492188 -5.785156 9.546875 -6.734375 C 8.660156 -7.671875 7.941406 -8.722656 7.390625 -9.890625 C 6.890625 -11.160156 6.640625 -12.488281 6.640625 -13.875 C 6.640625 -15.257812 6.890625 -16.585938 7.390625 -17.859375 C 7.941406 -19.078125 8.660156 -20.160156 9.546875 -21.109375 C 10.492188 -21.992188 11.578125 -22.710938 12.796875 -23.265625 C 14.015625 -23.765625 15.316406 -24.015625 16.703125 -24.015625 C 18.242188 -24.015625 19.707031 -23.679688 21.09375 -23.015625 C 21.375 -22.847656 21.679688 -22.765625 22.015625 -22.765625 C 22.515625 -22.765625 22.929688 -22.929688 23.265625 -23.265625 C 23.648438 -23.648438 23.84375 -24.09375 23.84375 -24.59375 C 23.84375 -25.039062 23.703125 -25.429688 23.421875 -25.765625 C 23.203125 -26.035156 22.898438 -26.253906 22.515625 -26.421875 C 20.679688 -27.304688 18.742188 -27.75 16.703125 -27.75 C 14.816406 -27.75 13.039062 -27.390625 11.375 -26.671875 C 9.71875 -25.953125 8.25 -24.957031 6.96875 -23.6875 C 5.695312 -22.40625 4.726562 -20.9375 4.0625 -19.28125 C 3.34375 -17.5625 2.984375 -15.757812 2.984375 -13.875 C 2.984375 -11.988281 3.34375 -10.1875 4.0625 -8.46875 C 4.726562 -6.8125 5.695312 -5.347656 6.96875 -4.078125 C 8.25 -2.796875 9.71875 -1.796875 11.375 -1.078125 C 13.039062 -0.359375 14.816406 0 16.703125 0 Z M 16.703125 0 "/></g></g></g><g fill="#ffffff" fill-opacity="1"><g transform="translate(164.377026, 202.074942)"><g><path d="M 2.984375 0 L 11.453125 0 C 13.234375 0 14.953125 -0.382812 16.609375 -1.15625 C 18.160156 -1.882812 19.546875 -2.882812 20.765625 -4.15625 C 21.984375 -5.488281 22.925781 -7.007812 23.59375 -8.71875 C 24.257812 -10.5 24.59375 -12.359375 24.59375 -14.296875 C 24.59375 -16.234375 24.257812 -18.0625 23.59375 -19.78125 C 22.925781 -21.5 21.984375 -23.019531 20.765625 -24.34375 C 19.597656 -25.675781 18.210938 -26.703125 16.609375 -27.421875 C 15.003906 -28.140625 13.34375 -28.53125 11.625 -28.59375 C 11.125 -28.59375 10.707031 -28.394531 10.375 -28 C 10.039062 -27.613281 9.875 -27.171875 9.875 -26.671875 C 9.875 -26.117188 10.039062 -25.648438 10.375 -25.265625 C 10.707031 -24.929688 11.125 -24.765625 11.625 -24.765625 L 11.703125 -24.765625 C 12.984375 -24.710938 14.203125 -24.40625 15.359375 -23.84375 C 16.472656 -23.289062 17.472656 -22.546875 18.359375 -21.609375 C 19.191406 -20.660156 19.859375 -19.550781 20.359375 -18.28125 C 20.847656 -17.007812 21.09375 -15.679688 21.09375 -14.296875 C 21.09375 -12.847656 20.847656 -11.488281 20.359375 -10.21875 C 19.859375 -8.945312 19.164062 -7.835938 18.28125 -6.890625 C 17.382812 -5.898438 16.359375 -5.15625 15.203125 -4.65625 C 14.035156 -4.101562 12.785156 -3.828125 11.453125 -3.828125 L 6.46875 -3.828125 L 6.46875 -26.765625 C 6.46875 -27.253906 6.273438 -27.695312 5.890625 -28.09375 C 5.554688 -28.425781 5.171875 -28.59375 4.734375 -28.59375 C 4.285156 -28.59375 3.894531 -28.425781 3.5625 -28.09375 C 3.226562 -27.695312 3.035156 -27.253906 2.984375 -26.765625 Z M 2.984375 0 "/></g></g></g><g fill="#ffffff" fill-opacity="1"><g transform="translate(191.549959, 202.074942)"><g><path d="M 3.0625 -1.90625 C 3.0625 -1.351562 3.257812 -0.910156 3.65625 -0.578125 C 4.039062 -0.191406 4.484375 0 4.984375 0 C 5.203125 0 5.394531 -0.0234375 5.5625 -0.078125 L 17.609375 -0.078125 C 18.109375 -0.078125 18.550781 -0.273438 18.9375 -0.671875 C 19.320312 -0.992188 19.515625 -1.4375 19.515625 -2 C 19.515625 -2.5 19.320312 -2.941406 18.9375 -3.328125 C 18.550781 -3.660156 18.109375 -3.828125 17.609375 -3.828125 L 6.890625 -3.828125 L 6.890625 -12.375 L 17.9375 -12.375 C 18.4375 -12.375 18.878906 -12.570312 19.265625 -12.96875 C 19.660156 -13.300781 19.859375 -13.742188 19.859375 -14.296875 C 19.859375 -14.796875 19.660156 -15.238281 19.265625 -15.625 C 18.878906 -16.007812 18.4375 -16.203125 17.9375 -16.203125 L 6.890625 -16.203125 L 6.890625 -25.015625 L 17.609375 -25.015625 C 18.109375 -25.015625 18.550781 -25.179688 18.9375 -25.515625 C 19.320312 -25.898438 19.515625 -26.34375 19.515625 -26.84375 C 19.515625 -27.394531 19.320312 -27.835938 18.9375 -28.171875 C 18.550781 -28.554688 18.109375 -28.75 17.609375 -28.75 L 4.984375 -28.75 C 4.429688 -28.75 3.988281 -28.554688 3.65625 -28.171875 C 3.257812 -27.835938 3.0625 -27.394531 3.0625 -26.84375 C 3.0625 -26.789062 3.0625 -26.707031 3.0625 -26.59375 Z M 3.0625 -1.90625 "/></g></g></g><g fill="#ffffff" fill-opacity="1"><g transform="translate(213.820131, 202.074942)"><g><path d="M 25.265625 -27 C 25.210938 -27.394531 25.019531 -27.757812 24.6875 -28.09375 L 24.265625 -28.421875 L 24.109375 -28.5 L 23.78125 -28.59375 L 23.359375 -28.59375 L 23.28125 -28.5 L 22.78125 -28.34375 L 22.6875 -28.34375 C 22.351562 -28.113281 22.132812 -27.804688 22.03125 -27.421875 L 21.953125 -27.421875 L 15.46875 -8.46875 L 8.984375 -27.421875 L 8.8125 -27.75 L 8.734375 -27.921875 L 8.40625 -28.25 L 8.234375 -28.34375 L 7.8125 -28.5 L 7.65625 -28.59375 L 7.15625 -28.59375 L 6.90625 -28.5 L 6.828125 -28.5 L 6.65625 -28.34375 L 6.328125 -28.09375 L 6.15625 -27.921875 L 5.90625 -27.5 L 5.90625 -27.34375 L 5.734375 -27 L 2.671875 -2.15625 C 2.554688 -0.882812 3.050781 -0.164062 4.15625 0 C 5.207031 0.164062 5.816406 -0.359375 5.984375 -1.578125 L 5.984375 -1.65625 L 8.234375 -19.28125 L 13.890625 -2.65625 C 14.160156 -1.820312 14.6875 -1.4375 15.46875 -1.5 C 16.238281 -1.4375 16.765625 -1.820312 17.046875 -2.65625 L 17.125 -2.65625 L 22.78125 -19.28125 L 25.015625 -1.65625 L 25.015625 -1.578125 C 25.179688 -0.359375 25.789062 0.164062 26.84375 0 C 27.957031 -0.164062 28.457031 -0.882812 28.34375 -2.15625 Z M 25.265625 -27 "/></g></g></g><g fill="#ffffff" fill-opacity="1"><g transform="translate(244.815557, 202.074942)"><g><path d="M 10.96875 -24.9375 C 12.1875 -24.9375 12.796875 -25.570312 12.796875 -26.84375 C 12.796875 -28.007812 12.1875 -28.617188 10.96875 -28.671875 L 5.0625 -28.671875 C 3.84375 -28.617188 3.234375 -28.007812 3.234375 -26.84375 C 3.234375 -25.570312 3.875 -24.9375 5.15625 -24.9375 L 6.140625 -24.9375 L 6.140625 -3.65625 L 5.0625 -3.65625 C 3.84375 -3.601562 3.234375 -2.96875 3.234375 -1.75 C 3.234375 -0.53125 3.875 0.078125 5.15625 0.078125 L 10.96875 0.078125 C 12.1875 0.078125 12.796875 -0.53125 12.796875 -1.75 C 12.796875 -2.96875 12.1875 -3.601562 10.96875 -3.65625 L 9.890625 -3.65625 L 9.890625 -24.9375 Z M 10.96875 -24.9375 "/></g></g></g><g fill="#ffffff" fill-opacity="1"><g transform="translate(260.604111, 202.074942)"><g><path d="M 3.90625 -0.171875 C 4.34375 -0.00390625 4.757812 -0.00390625 5.15625 -0.171875 C 5.539062 -0.390625 5.816406 -0.71875 5.984375 -1.15625 L 12.21875 -19.609375 C 12.382812 -20.054688 12.351562 -20.53125 12.125 -21.03125 C 11.957031 -21.46875 11.679688 -21.769531 11.296875 -21.9375 C 10.859375 -22.101562 10.441406 -22.078125 10.046875 -21.859375 C 9.660156 -21.691406 9.382812 -21.359375 9.21875 -20.859375 L 2.984375 -2.5 C 2.816406 -2 2.847656 -1.523438 3.078125 -1.078125 C 3.242188 -0.640625 3.519531 -0.335938 3.90625 -0.171875 Z M 20.765625 -1.15625 C 20.929688 -0.71875 21.210938 -0.390625 21.609375 -0.171875 C 21.992188 -0.00390625 22.40625 -0.00390625 22.84375 -0.171875 C 23.238281 -0.335938 23.519531 -0.640625 23.6875 -1.078125 C 23.851562 -1.523438 23.878906 -2 23.765625 -2.5 L 15.03125 -27.59375 C 14.863281 -28.09375 14.585938 -28.453125 14.203125 -28.671875 C 13.816406 -28.835938 13.398438 -28.835938 12.953125 -28.671875 C 12.566406 -28.503906 12.265625 -28.195312 12.046875 -27.75 C 11.878906 -27.25 11.878906 -26.78125 12.046875 -26.34375 Z M 20.765625 -1.15625 "/></g></g></g></svg>