<svg xmlns="http://www.w3.org/2000/svg" xmlns:xlink="http://www.w3.org/1999/xlink" width="400" zoomAndPan="magnify" viewBox="0 0 300 149.999998" height="200" preserveAspectRatio="xMidYMid meet" version="1.0"><defs><g/><clipPath id="9d6d4a2df7"><path d="M 108.929688 48.277344 L 128.894531 48.277344 L 128.894531 83 L 108.929688 83 Z M 108.929688 48.277344 " clip-rule="nonzero"/></clipPath><clipPath id="1e349be2a6"><path d="M 114 79 L 117 79 L 117 89.722656 L 114 89.722656 Z M 114 79 " clip-rule="nonzero"/></clipPath><clipPath id="7d9a8d911a"><path d="M 121 79 L 124 79 L 124 89.722656 L 121 89.722656 Z M 121 79 " clip-rule="nonzero"/></clipPath></defs><g clip-path="url(#9d6d4a2df7)"><path fill="#e80a0a" d="M 118.128906 48.753906 C 117.605469 49.035156 117.363281 49.605469 117.070312 50.089844 C 113.667969 55.910156 111.792969 62.609375 111.679688 69.351562 C 110.027344 70.460938 108.96875 72.40625 108.960938 74.398438 C 108.960938 76.921875 108.933594 79.441406 108.949219 81.964844 C 108.976562 82.734375 110.082031 83.105469 110.566406 82.496094 C 111.695312 81 112.769531 79.464844 113.886719 77.957031 C 114.683594 76.925781 115.972656 76.292969 117.273438 76.296875 C 118.414062 76.289062 119.550781 76.292969 120.691406 76.289062 C 121.964844 76.292969 123.230469 76.902344 124.007812 77.917969 C 125.125 79.425781 126.199219 80.960938 127.328125 82.464844 C 127.835938 83.085938 128.972656 82.652344 128.9375 81.847656 C 128.953125 79.367188 128.949219 76.882812 128.960938 74.398438 C 128.972656 72.40625 127.9375 70.449219 126.289062 69.324219 C 126.167969 62.300781 124.203125 55.296875 120.523438 49.300781 C 120.03125 48.519531 118.910156 48.277344 118.128906 48.753906 Z M 118.128906 48.753906 " fill-opacity="1" fill-rule="nonzero"/></g><path fill="#e80a0a" d="M 119.902344 80.304688 C 119.9375 79.886719 119.683594 79.46875 119.285156 79.332031 C 118.8125 79.140625 118.226562 79.421875 118.070312 79.910156 C 117.957031 81.445312 118.042969 83 118.007812 84.542969 C 118.039062 85.070312 117.859375 85.722656 118.332031 86.113281 C 118.863281 86.628906 119.875 86.214844 119.878906 85.472656 C 119.898438 83.75 119.890625 82.027344 119.902344 80.304688 Z M 119.902344 80.304688 " fill-opacity="1" fill-rule="nonzero"/><g clip-path="url(#1e349be2a6)"><path fill="#e80a0a" d="M 114.988281 79.984375 C 114.921875 82.808594 114.96875 85.640625 114.941406 88.472656 C 114.902344 88.894531 115.117188 89.351562 115.535156 89.5 C 116.09375 89.757812 116.8125 89.292969 116.8125 88.675781 C 116.832031 85.882812 116.828125 83.089844 116.839844 80.296875 C 116.871094 79.878906 116.625 79.453125 116.21875 79.316406 C 115.71875 79.121094 115.097656 79.453125 114.988281 79.984375 Z M 114.988281 79.984375 " fill-opacity="1" fill-rule="nonzero"/></g><g clip-path="url(#7d9a8d911a)"><path fill="#e80a0a" d="M 121.152344 79.984375 C 121.085938 82.808594 121.132812 85.640625 121.105469 88.472656 C 121.066406 88.894531 121.28125 89.351562 121.699219 89.5 C 122.257812 89.757812 122.980469 89.292969 122.976562 88.675781 C 122.996094 85.882812 122.992188 83.089844 123.003906 80.296875 C 123.039062 79.878906 122.789062 79.453125 122.382812 79.316406 C 121.882812 79.121094 121.261719 79.453125 121.152344 79.984375 Z M 121.152344 79.984375 " fill-opacity="1" fill-rule="nonzero"/></g><g fill="#ffffff" fill-opacity="1"><g transform="translate(55.0275, 86.957318)"><g><path d="M 3.46875 -0.140625 C 3.863281 0.00390625 4.234375 0.00390625 4.578125 -0.140625 C 4.921875 -0.335938 5.164062 -0.632812 5.3125 -1.03125 L 10.859375 -17.4375 C 11.003906 -17.832031 10.976562 -18.253906 10.78125 -18.703125 C 10.632812 -19.097656 10.390625 -19.367188 10.046875 -19.515625 C 9.648438 -19.660156 9.28125 -19.632812 8.9375 -19.4375 C 8.59375 -19.289062 8.347656 -18.992188 8.203125 -18.546875 L 2.65625 -2.21875 C 2.507812 -1.769531 2.535156 -1.347656 2.734375 -0.953125 C 2.878906 -0.566406 3.125 -0.296875 3.46875 -0.140625 Z M 18.46875 -1.03125 C 18.613281 -0.632812 18.863281 -0.335938 19.21875 -0.140625 C 19.5625 0.00390625 19.929688 0.00390625 20.328125 -0.140625 C 20.671875 -0.296875 20.914062 -0.566406 21.0625 -0.953125 C 21.207031 -1.347656 21.234375 -1.769531 21.140625 -2.21875 L 13.375 -24.546875 C 13.226562 -24.984375 12.984375 -25.300781 12.640625 -25.5 C 12.285156 -25.644531 11.914062 -25.644531 11.53125 -25.5 C 11.175781 -25.351562 10.90625 -25.082031 10.71875 -24.6875 C 10.5625 -24.238281 10.5625 -23.820312 10.71875 -23.4375 Z M 18.46875 -1.03125 "/></g></g></g><g fill="#ffffff" fill-opacity="1"><g transform="translate(78.089331, 86.957318)"><g><path d="M 14.859375 0 C 17.367188 0 19.679688 -0.738281 21.796875 -2.21875 C 22.285156 -2.5625 22.53125 -3.03125 22.53125 -3.625 C 22.53125 -4.0625 22.382812 -4.453125 22.09375 -4.796875 C 21.75 -5.148438 21.351562 -5.328125 20.90625 -5.328125 C 20.46875 -5.328125 20.078125 -5.148438 19.734375 -4.796875 C 18.253906 -3.816406 16.628906 -3.328125 14.859375 -3.328125 C 13.617188 -3.328125 12.457031 -3.546875 11.375 -3.984375 C 10.289062 -4.484375 9.332031 -5.148438 8.5 -5.984375 C 7.707031 -6.828125 7.066406 -7.765625 6.578125 -8.796875 C 6.128906 -9.929688 5.90625 -11.113281 5.90625 -12.34375 C 5.90625 -13.570312 6.128906 -14.753906 6.578125 -15.890625 C 7.066406 -16.972656 7.707031 -17.9375 8.5 -18.78125 C 9.332031 -19.5625 10.289062 -20.203125 11.375 -20.703125 C 12.457031 -21.140625 13.617188 -21.359375 14.859375 -21.359375 C 16.234375 -21.359375 17.535156 -21.0625 18.765625 -20.46875 C 19.015625 -20.320312 19.285156 -20.25 19.578125 -20.25 C 20.023438 -20.25 20.394531 -20.398438 20.6875 -20.703125 C 21.03125 -21.046875 21.203125 -21.4375 21.203125 -21.875 C 21.203125 -22.269531 21.082031 -22.613281 20.84375 -22.90625 C 20.644531 -23.15625 20.375 -23.351562 20.03125 -23.5 C 18.40625 -24.289062 16.679688 -24.6875 14.859375 -24.6875 C 13.179688 -24.6875 11.601562 -24.363281 10.125 -23.71875 C 8.644531 -23.082031 7.335938 -22.195312 6.203125 -21.0625 C 5.066406 -19.925781 4.203125 -18.617188 3.609375 -17.140625 C 2.972656 -15.617188 2.65625 -14.019531 2.65625 -12.34375 C 2.65625 -10.664062 2.972656 -9.066406 3.609375 -7.546875 C 4.203125 -6.066406 5.066406 -4.757812 6.203125 -3.625 C 7.335938 -2.488281 8.644531 -1.597656 10.125 -0.953125 C 11.601562 -0.316406 13.179688 0 14.859375 0 Z M 14.859375 0 "/></g></g></g><g fill="#ffffff" fill-opacity="1"><g transform="translate(103.14727, 86.957318)"><g/></g></g><g fill="#ffffff" fill-opacity="1"><g transform="translate(114.160773, 86.957318)"><g/></g></g><g fill="#ffffff" fill-opacity="1"><g transform="translate(125.174276, 86.957318)"><g/></g></g><g fill="#ffffff" fill-opacity="1"><g transform="translate(136.190617, 86.957318)"><g><path d="M 2.65625 0 L 10.203125 0 C 11.773438 0 13.300781 -0.34375 14.78125 -1.03125 C 16.15625 -1.675781 17.382812 -2.566406 18.46875 -3.703125 C 19.550781 -4.878906 20.390625 -6.234375 20.984375 -7.765625 C 21.578125 -9.335938 21.875 -10.988281 21.875 -12.71875 C 21.875 -14.4375 21.578125 -16.0625 20.984375 -17.59375 C 20.390625 -19.113281 19.550781 -20.46875 18.46875 -21.65625 C 17.4375 -22.84375 16.207031 -23.753906 14.78125 -24.390625 C 13.351562 -25.035156 11.875 -25.378906 10.34375 -25.421875 C 9.894531 -25.421875 9.523438 -25.25 9.234375 -24.90625 C 8.941406 -24.5625 8.796875 -24.164062 8.796875 -23.71875 C 8.796875 -23.226562 8.941406 -22.8125 9.234375 -22.46875 C 9.523438 -22.175781 9.894531 -22.03125 10.34375 -22.03125 L 10.421875 -22.03125 C 11.554688 -21.976562 12.640625 -21.707031 13.671875 -21.21875 C 14.648438 -20.71875 15.535156 -20.050781 16.328125 -19.21875 C 17.066406 -18.382812 17.660156 -17.398438 18.109375 -16.265625 C 18.546875 -15.128906 18.765625 -13.945312 18.765625 -12.71875 C 18.765625 -11.4375 18.546875 -10.226562 18.109375 -9.09375 C 17.660156 -7.957031 17.039062 -6.972656 16.25 -6.140625 C 15.46875 -5.242188 14.554688 -4.578125 13.515625 -4.140625 C 12.484375 -3.648438 11.378906 -3.40625 10.203125 -3.40625 L 5.765625 -3.40625 L 5.765625 -23.796875 C 5.765625 -24.242188 5.59375 -24.640625 5.25 -24.984375 C 4.945312 -25.273438 4.597656 -25.421875 4.203125 -25.421875 C 3.804688 -25.421875 3.460938 -25.273438 3.171875 -24.984375 C 2.878906 -24.640625 2.707031 -24.242188 2.65625 -23.796875 Z M 2.65625 0 "/></g></g></g><g fill="#ffffff" fill-opacity="1"><g transform="translate(160.36119, 86.957318)"><g><path d="M 2.734375 -1.703125 C 2.734375 -1.203125 2.90625 -0.804688 3.25 -0.515625 C 3.59375 -0.171875 3.984375 0 4.421875 0 C 4.617188 0 4.796875 -0.0234375 4.953125 -0.078125 L 15.65625 -0.078125 C 16.101562 -0.078125 16.5 -0.25 16.84375 -0.59375 C 17.1875 -0.882812 17.359375 -1.28125 17.359375 -1.78125 C 17.359375 -2.21875 17.1875 -2.609375 16.84375 -2.953125 C 16.5 -3.253906 16.101562 -3.40625 15.65625 -3.40625 L 6.125 -3.40625 L 6.125 -11.015625 L 15.953125 -11.015625 C 16.398438 -11.015625 16.796875 -11.1875 17.140625 -11.53125 C 17.484375 -11.820312 17.65625 -12.21875 17.65625 -12.71875 C 17.65625 -13.15625 17.484375 -13.546875 17.140625 -13.890625 C 16.796875 -14.234375 16.398438 -14.40625 15.953125 -14.40625 L 6.125 -14.40625 L 6.125 -22.25 L 15.65625 -22.25 C 16.101562 -22.25 16.5 -22.394531 16.84375 -22.6875 C 17.1875 -23.03125 17.359375 -23.425781 17.359375 -23.875 C 17.359375 -24.363281 17.1875 -24.757812 16.84375 -25.0625 C 16.5 -25.40625 16.101562 -25.578125 15.65625 -25.578125 L 4.421875 -25.578125 C 3.929688 -25.578125 3.539062 -25.40625 3.25 -25.0625 C 2.90625 -24.757812 2.734375 -24.363281 2.734375 -23.875 C 2.734375 -23.820312 2.734375 -23.75 2.734375 -23.65625 Z M 2.734375 -1.703125 "/></g></g></g><g fill="#ffffff" fill-opacity="1"><g transform="translate(180.170712, 86.957318)"><g><path d="M 22.46875 -24.015625 C 22.414062 -24.367188 22.242188 -24.691406 21.953125 -24.984375 L 21.578125 -25.28125 L 21.4375 -25.359375 L 21.140625 -25.421875 L 20.765625 -25.421875 L 20.6875 -25.359375 L 20.25 -25.203125 L 20.171875 -25.203125 C 19.878906 -25.003906 19.679688 -24.734375 19.578125 -24.390625 L 19.515625 -24.390625 L 13.75 -7.546875 L 7.984375 -24.390625 L 7.828125 -24.6875 L 7.765625 -24.828125 L 7.46875 -25.125 L 7.3125 -25.203125 L 6.953125 -25.359375 L 6.796875 -25.421875 L 6.359375 -25.421875 L 6.140625 -25.359375 L 6.0625 -25.359375 L 5.90625 -25.203125 L 5.609375 -24.984375 L 5.46875 -24.828125 L 5.25 -24.46875 L 5.25 -24.3125 L 5.09375 -24.015625 L 2.359375 -1.921875 C 2.265625 -0.785156 2.707031 -0.144531 3.6875 0 C 4.625 0.144531 5.164062 -0.320312 5.3125 -1.40625 L 5.3125 -1.484375 L 7.3125 -17.140625 L 12.34375 -2.359375 C 12.59375 -1.617188 13.0625 -1.273438 13.75 -1.328125 C 14.4375 -1.273438 14.90625 -1.617188 15.15625 -2.359375 L 15.21875 -2.359375 L 20.25 -17.140625 L 22.25 -1.484375 L 22.25 -1.40625 C 22.394531 -0.320312 22.9375 0.144531 23.875 0 C 24.851562 -0.144531 25.296875 -0.785156 25.203125 -1.921875 Z M 22.46875 -24.015625 "/></g></g></g><g fill="#ffffff" fill-opacity="1"><g transform="translate(207.741427, 86.957318)"><g><path d="M 9.765625 -22.171875 C 10.847656 -22.171875 11.390625 -22.738281 11.390625 -23.875 C 11.390625 -24.90625 10.847656 -25.445312 9.765625 -25.5 L 4.515625 -25.5 C 3.429688 -25.445312 2.890625 -24.90625 2.890625 -23.875 C 2.890625 -22.738281 3.457031 -22.171875 4.59375 -22.171875 L 5.46875 -22.171875 L 5.46875 -3.25 L 4.515625 -3.25 C 3.429688 -3.195312 2.890625 -2.628906 2.890625 -1.546875 C 2.890625 -0.460938 3.457031 0.078125 4.59375 0.078125 L 9.765625 0.078125 C 10.847656 0.078125 11.390625 -0.460938 11.390625 -1.546875 C 11.390625 -2.628906 10.847656 -3.195312 9.765625 -3.25 L 8.796875 -3.25 L 8.796875 -22.171875 Z M 9.765625 -22.171875 "/></g></g></g><g fill="#ffffff" fill-opacity="1"><g transform="translate(221.785491, 86.957318)"><g><path d="M 3.46875 -0.140625 C 3.863281 0.00390625 4.234375 0.00390625 4.578125 -0.140625 C 4.921875 -0.335938 5.164062 -0.632812 5.3125 -1.03125 L 10.859375 -17.4375 C 11.003906 -17.832031 10.976562 -18.253906 10.78125 -18.703125 C 10.632812 -19.097656 10.390625 -19.367188 10.046875 -19.515625 C 9.648438 -19.660156 9.28125 -19.632812 8.9375 -19.4375 C 8.59375 -19.289062 8.347656 -18.992188 8.203125 -18.546875 L 2.65625 -2.21875 C 2.507812 -1.769531 2.535156 -1.347656 2.734375 -0.953125 C 2.878906 -0.566406 3.125 -0.296875 3.46875 -0.140625 Z M 18.46875 -1.03125 C 18.613281 -0.632812 18.863281 -0.335938 19.21875 -0.140625 C 19.5625 0.00390625 19.929688 0.00390625 20.328125 -0.140625 C 20.671875 -0.296875 20.914062 -0.566406 21.0625 -0.953125 C 21.207031 -1.347656 21.234375 -1.769531 21.140625 -2.21875 L 13.375 -24.546875 C 13.226562 -24.984375 12.984375 -25.300781 12.640625 -25.5 C 12.285156 -25.644531 11.914062 -25.644531 11.53125 -25.5 C 11.175781 -25.351562 10.90625 -25.082031 10.71875 -24.6875 C 10.5625 -24.238281 10.5625 -23.820312 10.71875 -23.4375 Z M 18.46875 -1.03125 "/></g></g></g></svg>